<mxfile host="app.diagrams.net" modified="2024-03-18T23:01:02.209Z" agent="Mozilla/5.0 (Windows NT 10.0; Win64; x64) AppleWebKit/537.36 (KHTML, like Gecko) Chrome/122.0.0.0 Safari/537.36" etag="DztSOyaTAREg5NP_KsWG" version="24.0.7" type="device">
  <diagram name="Página-1" id="133wJ9Jbnx5yE9YCqGvj">
    <mxGraphModel dx="1050" dy="577" grid="1" gridSize="10" guides="1" tooltips="1" connect="1" arrows="1" fold="1" page="1" pageScale="1" pageWidth="827" pageHeight="1169" math="0" shadow="0">
      <root>
        <mxCell id="0" />
        <mxCell id="1" parent="0" />
        <mxCell id="tJa88EizCj217IpPwyDx-3" value="" style="edgeStyle=orthogonalEdgeStyle;rounded=0;orthogonalLoop=1;jettySize=auto;html=1;" edge="1" parent="1" source="tJa88EizCj217IpPwyDx-1" target="tJa88EizCj217IpPwyDx-2">
          <mxGeometry relative="1" as="geometry" />
        </mxCell>
        <mxCell id="tJa88EizCj217IpPwyDx-1" value="Início" style="rounded=1;whiteSpace=wrap;html=1;" vertex="1" parent="1">
          <mxGeometry x="380" y="10" width="120" height="60" as="geometry" />
        </mxCell>
        <mxCell id="tJa88EizCj217IpPwyDx-6" style="edgeStyle=orthogonalEdgeStyle;rounded=0;orthogonalLoop=1;jettySize=auto;html=1;entryX=0.5;entryY=0;entryDx=0;entryDy=0;" edge="1" parent="1" source="tJa88EizCj217IpPwyDx-2" target="tJa88EizCj217IpPwyDx-5">
          <mxGeometry relative="1" as="geometry" />
        </mxCell>
        <mxCell id="tJa88EizCj217IpPwyDx-7" value="Não" style="edgeLabel;html=1;align=center;verticalAlign=middle;resizable=0;points=[];" vertex="1" connectable="0" parent="tJa88EizCj217IpPwyDx-6">
          <mxGeometry x="-0.4465" y="-3" relative="1" as="geometry">
            <mxPoint as="offset" />
          </mxGeometry>
        </mxCell>
        <mxCell id="tJa88EizCj217IpPwyDx-2" value="Já sabe em que restaurante quer comer?" style="rhombus;whiteSpace=wrap;html=1;" vertex="1" parent="1">
          <mxGeometry x="355" y="100" width="170" height="100" as="geometry" />
        </mxCell>
        <mxCell id="tJa88EizCj217IpPwyDx-23" value="" style="edgeStyle=orthogonalEdgeStyle;rounded=0;orthogonalLoop=1;jettySize=auto;html=1;entryX=0.5;entryY=0;entryDx=0;entryDy=0;" edge="1" parent="1" source="tJa88EizCj217IpPwyDx-4" target="tJa88EizCj217IpPwyDx-22">
          <mxGeometry relative="1" as="geometry">
            <Array as="points">
              <mxPoint x="660" y="310" />
              <mxPoint x="505" y="310" />
            </Array>
          </mxGeometry>
        </mxCell>
        <mxCell id="tJa88EizCj217IpPwyDx-4" value="Ligar e fazer uma reserva" style="rounded=0;whiteSpace=wrap;html=1;" vertex="1" parent="1">
          <mxGeometry x="600" y="200" width="120" height="60" as="geometry" />
        </mxCell>
        <mxCell id="tJa88EizCj217IpPwyDx-11" style="edgeStyle=orthogonalEdgeStyle;rounded=0;orthogonalLoop=1;jettySize=auto;html=1;entryX=0;entryY=0.5;entryDx=0;entryDy=0;" edge="1" parent="1" source="tJa88EizCj217IpPwyDx-5" target="tJa88EizCj217IpPwyDx-4">
          <mxGeometry relative="1" as="geometry" />
        </mxCell>
        <mxCell id="tJa88EizCj217IpPwyDx-5" value="Escolher o local" style="rounded=0;whiteSpace=wrap;html=1;" vertex="1" parent="1">
          <mxGeometry x="160" y="200" width="120" height="60" as="geometry" />
        </mxCell>
        <mxCell id="tJa88EizCj217IpPwyDx-8" style="edgeStyle=orthogonalEdgeStyle;rounded=0;orthogonalLoop=1;jettySize=auto;html=1;entryX=0.663;entryY=0.01;entryDx=0;entryDy=0;entryPerimeter=0;" edge="1" parent="1" source="tJa88EizCj217IpPwyDx-2" target="tJa88EizCj217IpPwyDx-4">
          <mxGeometry relative="1" as="geometry" />
        </mxCell>
        <mxCell id="tJa88EizCj217IpPwyDx-9" value="Sim" style="edgeLabel;html=1;align=center;verticalAlign=middle;resizable=0;points=[];" vertex="1" connectable="0" parent="tJa88EizCj217IpPwyDx-8">
          <mxGeometry x="-0.4854" y="1" relative="1" as="geometry">
            <mxPoint as="offset" />
          </mxGeometry>
        </mxCell>
        <mxCell id="tJa88EizCj217IpPwyDx-42" value="" style="edgeStyle=orthogonalEdgeStyle;rounded=0;orthogonalLoop=1;jettySize=auto;html=1;" edge="1" parent="1" source="tJa88EizCj217IpPwyDx-12" target="tJa88EizCj217IpPwyDx-41">
          <mxGeometry relative="1" as="geometry" />
        </mxCell>
        <mxCell id="tJa88EizCj217IpPwyDx-12" value="Fazer a refeição" style="rounded=0;whiteSpace=wrap;html=1;" vertex="1" parent="1">
          <mxGeometry x="30" y="960" width="120" height="60" as="geometry" />
        </mxCell>
        <mxCell id="tJa88EizCj217IpPwyDx-40" value="" style="edgeStyle=orthogonalEdgeStyle;rounded=0;orthogonalLoop=1;jettySize=auto;html=1;" edge="1" parent="1" source="tJa88EizCj217IpPwyDx-13" target="tJa88EizCj217IpPwyDx-12">
          <mxGeometry relative="1" as="geometry" />
        </mxCell>
        <mxCell id="tJa88EizCj217IpPwyDx-13" value="Escolher o que comer" style="rounded=0;whiteSpace=wrap;html=1;" vertex="1" parent="1">
          <mxGeometry x="30" y="880" width="120" height="60" as="geometry" />
        </mxCell>
        <mxCell id="tJa88EizCj217IpPwyDx-39" value="" style="edgeStyle=orthogonalEdgeStyle;rounded=0;orthogonalLoop=1;jettySize=auto;html=1;" edge="1" parent="1" source="tJa88EizCj217IpPwyDx-14" target="tJa88EizCj217IpPwyDx-13">
          <mxGeometry relative="1" as="geometry" />
        </mxCell>
        <mxCell id="tJa88EizCj217IpPwyDx-14" value="Entrar e dizer o nome da reserva" style="rounded=0;whiteSpace=wrap;html=1;" vertex="1" parent="1">
          <mxGeometry x="30" y="800" width="120" height="60" as="geometry" />
        </mxCell>
        <mxCell id="tJa88EizCj217IpPwyDx-37" value="" style="edgeStyle=orthogonalEdgeStyle;rounded=0;orthogonalLoop=1;jettySize=auto;html=1;" edge="1" parent="1" source="tJa88EizCj217IpPwyDx-15" target="tJa88EizCj217IpPwyDx-14">
          <mxGeometry relative="1" as="geometry" />
        </mxCell>
        <mxCell id="tJa88EizCj217IpPwyDx-15" value="Estacionar" style="rounded=0;whiteSpace=wrap;html=1;" vertex="1" parent="1">
          <mxGeometry x="30" y="710" width="120" height="60" as="geometry" />
        </mxCell>
        <mxCell id="tJa88EizCj217IpPwyDx-35" style="edgeStyle=orthogonalEdgeStyle;rounded=0;orthogonalLoop=1;jettySize=auto;html=1;entryX=1;entryY=0.5;entryDx=0;entryDy=0;" edge="1" parent="1" source="tJa88EizCj217IpPwyDx-16" target="tJa88EizCj217IpPwyDx-19">
          <mxGeometry relative="1" as="geometry" />
        </mxCell>
        <mxCell id="tJa88EizCj217IpPwyDx-16" value="Chegou a hora de sair" style="rounded=0;whiteSpace=wrap;html=1;" vertex="1" parent="1">
          <mxGeometry x="670" y="525" width="120" height="60" as="geometry" />
        </mxCell>
        <mxCell id="tJa88EizCj217IpPwyDx-38" style="edgeStyle=orthogonalEdgeStyle;rounded=0;orthogonalLoop=1;jettySize=auto;html=1;entryX=1;entryY=0.75;entryDx=0;entryDy=0;" edge="1" parent="1" source="tJa88EizCj217IpPwyDx-17" target="tJa88EizCj217IpPwyDx-14">
          <mxGeometry relative="1" as="geometry">
            <Array as="points">
              <mxPoint x="400" y="845" />
            </Array>
          </mxGeometry>
        </mxCell>
        <mxCell id="tJa88EizCj217IpPwyDx-17" value="Chamar um uber" style="rounded=0;whiteSpace=wrap;html=1;" vertex="1" parent="1">
          <mxGeometry x="330" y="620" width="120" height="60" as="geometry" />
        </mxCell>
        <mxCell id="tJa88EizCj217IpPwyDx-36" value="" style="edgeStyle=orthogonalEdgeStyle;rounded=0;orthogonalLoop=1;jettySize=auto;html=1;" edge="1" parent="1" source="tJa88EizCj217IpPwyDx-18" target="tJa88EizCj217IpPwyDx-15">
          <mxGeometry relative="1" as="geometry" />
        </mxCell>
        <mxCell id="tJa88EizCj217IpPwyDx-18" value="Conduzir até ao local" style="rounded=0;whiteSpace=wrap;html=1;" vertex="1" parent="1">
          <mxGeometry x="30" y="620" width="120" height="60" as="geometry" />
        </mxCell>
        <mxCell id="tJa88EizCj217IpPwyDx-29" value="" style="edgeStyle=orthogonalEdgeStyle;rounded=0;orthogonalLoop=1;jettySize=auto;html=1;" edge="1" parent="1" source="tJa88EizCj217IpPwyDx-19" target="tJa88EizCj217IpPwyDx-28">
          <mxGeometry relative="1" as="geometry" />
        </mxCell>
        <mxCell id="tJa88EizCj217IpPwyDx-19" value="Pegar na carteira e sair" style="rounded=0;whiteSpace=wrap;html=1;" vertex="1" parent="1">
          <mxGeometry x="190" y="450" width="120" height="60" as="geometry" />
        </mxCell>
        <mxCell id="tJa88EizCj217IpPwyDx-34" value="" style="edgeStyle=orthogonalEdgeStyle;rounded=0;orthogonalLoop=1;jettySize=auto;html=1;" edge="1" parent="1" source="tJa88EizCj217IpPwyDx-20" target="tJa88EizCj217IpPwyDx-16">
          <mxGeometry relative="1" as="geometry" />
        </mxCell>
        <mxCell id="tJa88EizCj217IpPwyDx-20" value="Sentar no sofá a ver televisão" style="rounded=0;whiteSpace=wrap;html=1;" vertex="1" parent="1">
          <mxGeometry x="670" y="440" width="120" height="60" as="geometry" />
        </mxCell>
        <mxCell id="tJa88EizCj217IpPwyDx-24" style="edgeStyle=orthogonalEdgeStyle;rounded=0;orthogonalLoop=1;jettySize=auto;html=1;entryX=0.25;entryY=0;entryDx=0;entryDy=0;" edge="1" parent="1" source="tJa88EizCj217IpPwyDx-22" target="tJa88EizCj217IpPwyDx-19">
          <mxGeometry relative="1" as="geometry" />
        </mxCell>
        <mxCell id="tJa88EizCj217IpPwyDx-25" value="Sim" style="edgeLabel;html=1;align=center;verticalAlign=middle;resizable=0;points=[];" vertex="1" connectable="0" parent="tJa88EizCj217IpPwyDx-24">
          <mxGeometry x="-0.5559" relative="1" as="geometry">
            <mxPoint as="offset" />
          </mxGeometry>
        </mxCell>
        <mxCell id="tJa88EizCj217IpPwyDx-26" style="edgeStyle=orthogonalEdgeStyle;rounded=0;orthogonalLoop=1;jettySize=auto;html=1;entryX=0.75;entryY=0;entryDx=0;entryDy=0;" edge="1" parent="1" source="tJa88EizCj217IpPwyDx-22" target="tJa88EizCj217IpPwyDx-20">
          <mxGeometry relative="1" as="geometry" />
        </mxCell>
        <mxCell id="tJa88EizCj217IpPwyDx-27" value="Não" style="edgeLabel;html=1;align=center;verticalAlign=middle;resizable=0;points=[];" vertex="1" connectable="0" parent="tJa88EizCj217IpPwyDx-26">
          <mxGeometry x="-0.4309" y="3" relative="1" as="geometry">
            <mxPoint as="offset" />
          </mxGeometry>
        </mxCell>
        <mxCell id="tJa88EizCj217IpPwyDx-22" value="Já está na hora de saída?" style="rhombus;whiteSpace=wrap;html=1;" vertex="1" parent="1">
          <mxGeometry x="450" y="360" width="110" height="90" as="geometry" />
        </mxCell>
        <mxCell id="tJa88EizCj217IpPwyDx-30" style="edgeStyle=orthogonalEdgeStyle;rounded=0;orthogonalLoop=1;jettySize=auto;html=1;entryX=0.25;entryY=0;entryDx=0;entryDy=0;" edge="1" parent="1" source="tJa88EizCj217IpPwyDx-28" target="tJa88EizCj217IpPwyDx-18">
          <mxGeometry relative="1" as="geometry" />
        </mxCell>
        <mxCell id="tJa88EizCj217IpPwyDx-31" value="Sim" style="edgeLabel;html=1;align=center;verticalAlign=middle;resizable=0;points=[];" vertex="1" connectable="0" parent="tJa88EizCj217IpPwyDx-30">
          <mxGeometry x="-0.4084" y="-3" relative="1" as="geometry">
            <mxPoint as="offset" />
          </mxGeometry>
        </mxCell>
        <mxCell id="tJa88EizCj217IpPwyDx-28" value="Tem carro?" style="rhombus;whiteSpace=wrap;html=1;" vertex="1" parent="1">
          <mxGeometry x="210" y="540" width="80" height="80" as="geometry" />
        </mxCell>
        <mxCell id="tJa88EizCj217IpPwyDx-32" style="edgeStyle=orthogonalEdgeStyle;rounded=0;orthogonalLoop=1;jettySize=auto;html=1;entryX=0.933;entryY=-0.003;entryDx=0;entryDy=0;entryPerimeter=0;" edge="1" parent="1" source="tJa88EizCj217IpPwyDx-28" target="tJa88EizCj217IpPwyDx-17">
          <mxGeometry relative="1" as="geometry" />
        </mxCell>
        <mxCell id="tJa88EizCj217IpPwyDx-33" value="Não" style="edgeLabel;html=1;align=center;verticalAlign=middle;resizable=0;points=[];" vertex="1" connectable="0" parent="tJa88EizCj217IpPwyDx-32">
          <mxGeometry x="-0.5251" relative="1" as="geometry">
            <mxPoint as="offset" />
          </mxGeometry>
        </mxCell>
        <mxCell id="tJa88EizCj217IpPwyDx-45" value="" style="edgeStyle=orthogonalEdgeStyle;rounded=0;orthogonalLoop=1;jettySize=auto;html=1;" edge="1" parent="1" source="tJa88EizCj217IpPwyDx-41" target="tJa88EizCj217IpPwyDx-43">
          <mxGeometry relative="1" as="geometry" />
        </mxCell>
        <mxCell id="tJa88EizCj217IpPwyDx-41" value="Pagar a conta" style="rounded=0;whiteSpace=wrap;html=1;" vertex="1" parent="1">
          <mxGeometry x="200" y="960" width="120" height="60" as="geometry" />
        </mxCell>
        <mxCell id="tJa88EizCj217IpPwyDx-47" value="" style="edgeStyle=orthogonalEdgeStyle;rounded=0;orthogonalLoop=1;jettySize=auto;html=1;" edge="1" parent="1" source="tJa88EizCj217IpPwyDx-43" target="tJa88EizCj217IpPwyDx-46">
          <mxGeometry relative="1" as="geometry" />
        </mxCell>
        <mxCell id="tJa88EizCj217IpPwyDx-43" value="Voltar a casa" style="rounded=0;whiteSpace=wrap;html=1;" vertex="1" parent="1">
          <mxGeometry x="355" y="960" width="120" height="60" as="geometry" />
        </mxCell>
        <mxCell id="tJa88EizCj217IpPwyDx-46" value="Fim" style="rounded=1;whiteSpace=wrap;html=1;" vertex="1" parent="1">
          <mxGeometry x="540" y="960" width="120" height="60" as="geometry" />
        </mxCell>
      </root>
    </mxGraphModel>
  </diagram>
</mxfile>
